<mxfile host="app.diagrams.net" modified="2021-06-30T05:32:36.288Z" agent="5.0 (Windows NT 10.0; Win64; x64) AppleWebKit/537.36 (KHTML, like Gecko) Chrome/91.0.4472.114 Safari/537.36" etag="eundRm5dysYS3dbFuE3a" version="14.8.2" type="github">
  <diagram id="VV9ywOSvqPI21C3Ctaex" name="Page-1">
    <mxGraphModel dx="1022" dy="436" grid="1" gridSize="10" guides="1" tooltips="1" connect="1" arrows="1" fold="1" page="1" pageScale="1" pageWidth="850" pageHeight="1100" math="0" shadow="0">
      <root>
        <mxCell id="0" />
        <mxCell id="1" parent="0" />
        <mxCell id="ftCi7-vlfEUG5diF0UW_-12" style="edgeStyle=orthogonalEdgeStyle;rounded=0;orthogonalLoop=1;jettySize=auto;html=1;entryX=0.106;entryY=1.033;entryDx=0;entryDy=0;entryPerimeter=0;" edge="1" parent="1" source="ftCi7-vlfEUG5diF0UW_-1" target="ftCi7-vlfEUG5diF0UW_-4">
          <mxGeometry relative="1" as="geometry">
            <Array as="points">
              <mxPoint x="153" y="350" />
              <mxPoint x="153" y="350" />
            </Array>
          </mxGeometry>
        </mxCell>
        <mxCell id="ftCi7-vlfEUG5diF0UW_-1" value="NEFT Application" style="rounded=0;whiteSpace=wrap;html=1;" vertex="1" parent="1">
          <mxGeometry x="95" y="370" width="120" height="60" as="geometry" />
        </mxCell>
        <mxCell id="ftCi7-vlfEUG5diF0UW_-11" style="edgeStyle=orthogonalEdgeStyle;rounded=0;orthogonalLoop=1;jettySize=auto;html=1;entryX=0.455;entryY=1;entryDx=0;entryDy=0;entryPerimeter=0;" edge="1" parent="1" source="ftCi7-vlfEUG5diF0UW_-2" target="ftCi7-vlfEUG5diF0UW_-4">
          <mxGeometry relative="1" as="geometry" />
        </mxCell>
        <mxCell id="ftCi7-vlfEUG5diF0UW_-2" value="RTGS Application" style="rounded=0;whiteSpace=wrap;html=1;" vertex="1" parent="1">
          <mxGeometry x="285" y="370" width="120" height="60" as="geometry" />
        </mxCell>
        <mxCell id="ftCi7-vlfEUG5diF0UW_-10" style="edgeStyle=orthogonalEdgeStyle;rounded=0;orthogonalLoop=1;jettySize=auto;html=1;entryX=0.866;entryY=1.044;entryDx=0;entryDy=0;entryPerimeter=0;" edge="1" parent="1" source="ftCi7-vlfEUG5diF0UW_-3" target="ftCi7-vlfEUG5diF0UW_-4">
          <mxGeometry relative="1" as="geometry">
            <Array as="points">
              <mxPoint x="571" y="350" />
              <mxPoint x="571" y="350" />
            </Array>
          </mxGeometry>
        </mxCell>
        <mxCell id="ftCi7-vlfEUG5diF0UW_-3" value="UPI Application" style="rounded=0;whiteSpace=wrap;html=1;" vertex="1" parent="1">
          <mxGeometry x="515" y="370" width="120" height="60" as="geometry" />
        </mxCell>
        <mxCell id="ftCi7-vlfEUG5diF0UW_-8" style="edgeStyle=orthogonalEdgeStyle;rounded=0;orthogonalLoop=1;jettySize=auto;html=1;" edge="1" parent="1" source="ftCi7-vlfEUG5diF0UW_-4">
          <mxGeometry relative="1" as="geometry">
            <mxPoint x="160" y="170" as="targetPoint" />
            <Array as="points">
              <mxPoint x="160" y="230" />
              <mxPoint x="160" y="230" />
            </Array>
          </mxGeometry>
        </mxCell>
        <mxCell id="ftCi7-vlfEUG5diF0UW_-9" style="edgeStyle=orthogonalEdgeStyle;rounded=0;orthogonalLoop=1;jettySize=auto;html=1;" edge="1" parent="1" source="ftCi7-vlfEUG5diF0UW_-4" target="ftCi7-vlfEUG5diF0UW_-6">
          <mxGeometry relative="1" as="geometry">
            <mxPoint x="280" y="170" as="targetPoint" />
            <Array as="points">
              <mxPoint x="390" y="220" />
              <mxPoint x="390" y="220" />
            </Array>
          </mxGeometry>
        </mxCell>
        <mxCell id="ftCi7-vlfEUG5diF0UW_-4" value="Messaging System" style="rounded=0;whiteSpace=wrap;html=1;" vertex="1" parent="1">
          <mxGeometry x="95" y="250" width="550" height="60" as="geometry" />
        </mxCell>
        <mxCell id="ftCi7-vlfEUG5diF0UW_-5" value="Admin" style="shape=umlActor;verticalLabelPosition=bottom;verticalAlign=top;html=1;outlineConnect=0;" vertex="1" parent="1">
          <mxGeometry x="150" y="90" width="30" height="60" as="geometry" />
        </mxCell>
        <mxCell id="ftCi7-vlfEUG5diF0UW_-14" value="" style="edgeStyle=orthogonalEdgeStyle;rounded=0;orthogonalLoop=1;jettySize=auto;html=1;" edge="1" parent="1" source="ftCi7-vlfEUG5diF0UW_-6" target="ftCi7-vlfEUG5diF0UW_-4">
          <mxGeometry relative="1" as="geometry" />
        </mxCell>
        <mxCell id="ftCi7-vlfEUG5diF0UW_-6" value="Payments Monitor" style="shape=umlActor;verticalLabelPosition=bottom;verticalAlign=top;html=1;outlineConnect=0;" vertex="1" parent="1">
          <mxGeometry x="375" y="90" width="30" height="60" as="geometry" />
        </mxCell>
      </root>
    </mxGraphModel>
  </diagram>
</mxfile>
